<mxfile host="Electron" agent="Mozilla/5.0 (Windows NT 10.0; Win64; x64) AppleWebKit/537.36 (KHTML, like Gecko) draw.io/24.7.5 Chrome/126.0.6478.183 Electron/31.3.0 Safari/537.36" version="24.7.5">
  <diagram name="PÃ¡gina-1" id="JbPFOgDiEz8VkWts5BSS">
    <mxGraphModel dx="1600" dy="967" grid="1" gridSize="10" guides="1" tooltips="1" connect="1" arrows="1" fold="1" page="1" pageScale="1" pageWidth="850" pageHeight="1100" math="0" shadow="0">
      <root>
        <mxCell id="0" />
        <mxCell id="1" parent="0" />
        <mxCell id="QWkCyrtVMpErKf0Jch0C-1" value="INICIO" style="strokeWidth=2;html=1;shape=mxgraph.flowchart.start_1;whiteSpace=wrap;fillColor=#60a917;fontColor=#ffffff;strokeColor=#2D7600;" vertex="1" parent="1">
          <mxGeometry x="200" y="60" width="80" height="40" as="geometry" />
        </mxCell>
        <mxCell id="QWkCyrtVMpErKf0Jch0C-9" style="edgeStyle=orthogonalEdgeStyle;rounded=0;orthogonalLoop=1;jettySize=auto;html=1;exitX=0.5;exitY=1;exitDx=0;exitDy=0;entryX=0.5;entryY=0;entryDx=0;entryDy=0;" edge="1" parent="1" source="QWkCyrtVMpErKf0Jch0C-3" target="QWkCyrtVMpErKf0Jch0C-4">
          <mxGeometry relative="1" as="geometry" />
        </mxCell>
        <mxCell id="QWkCyrtVMpErKf0Jch0C-3" value="ADELANTE,ATRAS,&lt;div&gt;DERECHA,IZQUIERDA&lt;/div&gt;" style="html=1;strokeWidth=2;shape=manualInput;whiteSpace=wrap;rounded=1;size=26;arcSize=11;fillColor=#fa6800;fontColor=#000000;strokeColor=#C73500;" vertex="1" parent="1">
          <mxGeometry x="170" y="110" width="140" height="90" as="geometry" />
        </mxCell>
        <mxCell id="QWkCyrtVMpErKf0Jch0C-10" style="edgeStyle=orthogonalEdgeStyle;rounded=0;orthogonalLoop=1;jettySize=auto;html=1;exitX=0.5;exitY=1;exitDx=0;exitDy=0;entryX=0.5;entryY=0;entryDx=0;entryDy=0;" edge="1" parent="1" source="QWkCyrtVMpErKf0Jch0C-4" target="QWkCyrtVMpErKf0Jch0C-5">
          <mxGeometry relative="1" as="geometry" />
        </mxCell>
        <mxCell id="QWkCyrtVMpErKf0Jch0C-4" value="TRISC = 0X00&lt;div&gt;TRISB = 0XFF&lt;/div&gt;" style="rounded=1;whiteSpace=wrap;html=1;absoluteArcSize=1;arcSize=14;strokeWidth=2;fillColor=#a0522d;fontColor=#ffffff;strokeColor=#6D1F00;" vertex="1" parent="1">
          <mxGeometry x="190" y="230" width="100" height="50" as="geometry" />
        </mxCell>
        <mxCell id="QWkCyrtVMpErKf0Jch0C-11" style="edgeStyle=orthogonalEdgeStyle;rounded=0;orthogonalLoop=1;jettySize=auto;html=1;exitX=0.5;exitY=1;exitDx=0;exitDy=0;entryX=0.5;entryY=0;entryDx=0;entryDy=0;" edge="1" parent="1" source="QWkCyrtVMpErKf0Jch0C-5" target="QWkCyrtVMpErKf0Jch0C-6">
          <mxGeometry relative="1" as="geometry" />
        </mxCell>
        <mxCell id="QWkCyrtVMpErKf0Jch0C-5" value="RESISTENCIA PULL_UP= ACTIVADO" style="rounded=1;whiteSpace=wrap;html=1;absoluteArcSize=1;arcSize=14;strokeWidth=2;fillColor=#a0522d;fontColor=#ffffff;strokeColor=#6D1F00;" vertex="1" parent="1">
          <mxGeometry x="185" y="300" width="110" height="50" as="geometry" />
        </mxCell>
        <mxCell id="QWkCyrtVMpErKf0Jch0C-6" value="LIMPIAR PUERTO C Y PUERTOB" style="rounded=1;whiteSpace=wrap;html=1;absoluteArcSize=1;arcSize=14;strokeWidth=2;fillColor=#a0522d;fontColor=#ffffff;strokeColor=#6D1F00;" vertex="1" parent="1">
          <mxGeometry x="190" y="380" width="100" height="60" as="geometry" />
        </mxCell>
        <mxCell id="QWkCyrtVMpErKf0Jch0C-13" style="edgeStyle=orthogonalEdgeStyle;rounded=0;orthogonalLoop=1;jettySize=auto;html=1;exitX=0.5;exitY=1;exitDx=0;exitDy=0;exitPerimeter=0;" edge="1" parent="1" source="QWkCyrtVMpErKf0Jch0C-7">
          <mxGeometry relative="1" as="geometry">
            <mxPoint x="240" y="450" as="targetPoint" />
            <Array as="points">
              <mxPoint x="240" y="590" />
              <mxPoint x="330" y="590" />
              <mxPoint x="330" y="450" />
            </Array>
          </mxGeometry>
        </mxCell>
        <mxCell id="QWkCyrtVMpErKf0Jch0C-14" value="SI" style="edgeLabel;html=1;align=center;verticalAlign=middle;resizable=0;points=[];" vertex="1" connectable="0" parent="QWkCyrtVMpErKf0Jch0C-13">
          <mxGeometry x="-0.9278" y="1" relative="1" as="geometry">
            <mxPoint as="offset" />
          </mxGeometry>
        </mxCell>
        <mxCell id="QWkCyrtVMpErKf0Jch0C-7" value="TRUE" style="strokeWidth=2;html=1;shape=mxgraph.flowchart.decision;whiteSpace=wrap;fillColor=#e3c800;fontColor=#000000;strokeColor=#B09500;" vertex="1" parent="1">
          <mxGeometry x="190" y="470" width="100" height="80" as="geometry" />
        </mxCell>
        <mxCell id="QWkCyrtVMpErKf0Jch0C-8" style="edgeStyle=orthogonalEdgeStyle;rounded=0;orthogonalLoop=1;jettySize=auto;html=1;exitX=0.5;exitY=1;exitDx=0;exitDy=0;exitPerimeter=0;entryX=0.5;entryY=0.111;entryDx=0;entryDy=0;entryPerimeter=0;" edge="1" parent="1" source="QWkCyrtVMpErKf0Jch0C-1" target="QWkCyrtVMpErKf0Jch0C-3">
          <mxGeometry relative="1" as="geometry" />
        </mxCell>
        <mxCell id="QWkCyrtVMpErKf0Jch0C-12" style="edgeStyle=orthogonalEdgeStyle;rounded=0;orthogonalLoop=1;jettySize=auto;html=1;exitX=0.5;exitY=1;exitDx=0;exitDy=0;entryX=0.5;entryY=0;entryDx=0;entryDy=0;entryPerimeter=0;" edge="1" parent="1" source="QWkCyrtVMpErKf0Jch0C-6" target="QWkCyrtVMpErKf0Jch0C-7">
          <mxGeometry relative="1" as="geometry" />
        </mxCell>
        <mxCell id="QWkCyrtVMpErKf0Jch0C-15" value="FIN" style="strokeWidth=2;html=1;shape=mxgraph.flowchart.start_1;whiteSpace=wrap;fillColor=#60a917;fontColor=#ffffff;strokeColor=#2D7600;" vertex="1" parent="1">
          <mxGeometry x="110" y="560" width="80" height="40" as="geometry" />
        </mxCell>
        <mxCell id="QWkCyrtVMpErKf0Jch0C-16" style="edgeStyle=orthogonalEdgeStyle;rounded=0;orthogonalLoop=1;jettySize=auto;html=1;exitX=0;exitY=0.5;exitDx=0;exitDy=0;exitPerimeter=0;entryX=0.5;entryY=0;entryDx=0;entryDy=0;entryPerimeter=0;" edge="1" parent="1" source="QWkCyrtVMpErKf0Jch0C-7" target="QWkCyrtVMpErKf0Jch0C-15">
          <mxGeometry relative="1" as="geometry" />
        </mxCell>
        <mxCell id="QWkCyrtVMpErKf0Jch0C-17" value="NO" style="edgeLabel;html=1;align=center;verticalAlign=middle;resizable=0;points=[];" vertex="1" connectable="0" parent="QWkCyrtVMpErKf0Jch0C-16">
          <mxGeometry x="-0.6" y="1" relative="1" as="geometry">
            <mxPoint as="offset" />
          </mxGeometry>
        </mxCell>
        <mxCell id="QWkCyrtVMpErKf0Jch0C-18" value="INT_RBI" style="strokeWidth=2;html=1;shape=mxgraph.flowchart.start_1;whiteSpace=wrap;fillColor=#60a917;fontColor=#ffffff;strokeColor=#2D7600;" vertex="1" parent="1">
          <mxGeometry x="460" y="50" width="80" height="40" as="geometry" />
        </mxCell>
        <mxCell id="QWkCyrtVMpErKf0Jch0C-54" style="edgeStyle=orthogonalEdgeStyle;rounded=0;orthogonalLoop=1;jettySize=auto;html=1;exitX=1;exitY=0.5;exitDx=0;exitDy=0;exitPerimeter=0;" edge="1" parent="1" source="QWkCyrtVMpErKf0Jch0C-20">
          <mxGeometry relative="1" as="geometry">
            <mxPoint x="500" y="1031" as="targetPoint" />
            <Array as="points">
              <mxPoint x="570" y="165" />
              <mxPoint x="570" y="1030" />
              <mxPoint x="501" y="1030" />
            </Array>
          </mxGeometry>
        </mxCell>
        <mxCell id="QWkCyrtVMpErKf0Jch0C-20" value="FLAG RBI = 1 ?&amp;nbsp;" style="strokeWidth=2;html=1;shape=mxgraph.flowchart.decision;whiteSpace=wrap;fillColor=#e3c800;fontColor=#000000;strokeColor=#B09500;" vertex="1" parent="1">
          <mxGeometry x="450" y="120" width="100" height="90" as="geometry" />
        </mxCell>
        <mxCell id="QWkCyrtVMpErKf0Jch0C-21" style="edgeStyle=orthogonalEdgeStyle;rounded=0;orthogonalLoop=1;jettySize=auto;html=1;exitX=0.5;exitY=1;exitDx=0;exitDy=0;exitPerimeter=0;entryX=0.5;entryY=0;entryDx=0;entryDy=0;entryPerimeter=0;" edge="1" parent="1" source="QWkCyrtVMpErKf0Jch0C-18" target="QWkCyrtVMpErKf0Jch0C-20">
          <mxGeometry relative="1" as="geometry" />
        </mxCell>
        <mxCell id="QWkCyrtVMpErKf0Jch0C-31" style="edgeStyle=orthogonalEdgeStyle;rounded=0;orthogonalLoop=1;jettySize=auto;html=1;exitX=0.5;exitY=1;exitDx=0;exitDy=0;exitPerimeter=0;entryX=0.5;entryY=0;entryDx=0;entryDy=0;" edge="1" parent="1" source="QWkCyrtVMpErKf0Jch0C-22" target="QWkCyrtVMpErKf0Jch0C-24">
          <mxGeometry relative="1" as="geometry" />
        </mxCell>
        <mxCell id="QWkCyrtVMpErKf0Jch0C-32" value="SI" style="edgeLabel;html=1;align=center;verticalAlign=middle;resizable=0;points=[];" vertex="1" connectable="0" parent="QWkCyrtVMpErKf0Jch0C-31">
          <mxGeometry x="-0.4" y="1" relative="1" as="geometry">
            <mxPoint as="offset" />
          </mxGeometry>
        </mxCell>
        <mxCell id="QWkCyrtVMpErKf0Jch0C-34" style="edgeStyle=orthogonalEdgeStyle;rounded=0;orthogonalLoop=1;jettySize=auto;html=1;exitX=0;exitY=0.5;exitDx=0;exitDy=0;exitPerimeter=0;" edge="1" parent="1" source="QWkCyrtVMpErKf0Jch0C-22">
          <mxGeometry relative="1" as="geometry">
            <mxPoint x="500" y="410" as="targetPoint" />
            <Array as="points">
              <mxPoint x="410" y="275" />
              <mxPoint x="410" y="410" />
            </Array>
          </mxGeometry>
        </mxCell>
        <mxCell id="QWkCyrtVMpErKf0Jch0C-35" value="NO" style="edgeLabel;html=1;align=center;verticalAlign=middle;resizable=0;points=[];" vertex="1" connectable="0" parent="QWkCyrtVMpErKf0Jch0C-34">
          <mxGeometry x="-0.8491" y="-1" relative="1" as="geometry">
            <mxPoint as="offset" />
          </mxGeometry>
        </mxCell>
        <mxCell id="QWkCyrtVMpErKf0Jch0C-22" value="SE PRESIONO ADELANTE ?" style="strokeWidth=2;html=1;shape=mxgraph.flowchart.decision;whiteSpace=wrap;fillColor=#e3c800;fontColor=#000000;strokeColor=#B09500;" vertex="1" parent="1">
          <mxGeometry x="450" y="230" width="100" height="90" as="geometry" />
        </mxCell>
        <mxCell id="QWkCyrtVMpErKf0Jch0C-36" style="edgeStyle=orthogonalEdgeStyle;rounded=0;orthogonalLoop=1;jettySize=auto;html=1;exitX=0.5;exitY=1;exitDx=0;exitDy=0;exitPerimeter=0;entryX=0.5;entryY=0;entryDx=0;entryDy=0;" edge="1" parent="1" source="QWkCyrtVMpErKf0Jch0C-23" target="QWkCyrtVMpErKf0Jch0C-25">
          <mxGeometry relative="1" as="geometry" />
        </mxCell>
        <mxCell id="QWkCyrtVMpErKf0Jch0C-37" value="SI" style="edgeLabel;html=1;align=center;verticalAlign=middle;resizable=0;points=[];" vertex="1" connectable="0" parent="QWkCyrtVMpErKf0Jch0C-36">
          <mxGeometry x="-0.4667" y="1" relative="1" as="geometry">
            <mxPoint as="offset" />
          </mxGeometry>
        </mxCell>
        <mxCell id="QWkCyrtVMpErKf0Jch0C-39" style="edgeStyle=orthogonalEdgeStyle;rounded=0;orthogonalLoop=1;jettySize=auto;html=1;exitX=0;exitY=0.5;exitDx=0;exitDy=0;exitPerimeter=0;" edge="1" parent="1" source="QWkCyrtVMpErKf0Jch0C-23">
          <mxGeometry relative="1" as="geometry">
            <mxPoint x="500" y="630" as="targetPoint" />
            <Array as="points">
              <mxPoint x="410" y="475" />
              <mxPoint x="410" y="630" />
            </Array>
          </mxGeometry>
        </mxCell>
        <mxCell id="QWkCyrtVMpErKf0Jch0C-40" value="NO" style="edgeLabel;html=1;align=center;verticalAlign=middle;resizable=0;points=[];" vertex="1" connectable="0" parent="QWkCyrtVMpErKf0Jch0C-39">
          <mxGeometry x="-0.8526" y="2" relative="1" as="geometry">
            <mxPoint as="offset" />
          </mxGeometry>
        </mxCell>
        <mxCell id="QWkCyrtVMpErKf0Jch0C-23" value="SE PRESIONO ATRAS ?" style="strokeWidth=2;html=1;shape=mxgraph.flowchart.decision;whiteSpace=wrap;fillColor=#e3c800;fontColor=#000000;strokeColor=#B09500;" vertex="1" parent="1">
          <mxGeometry x="450" y="430" width="100" height="90" as="geometry" />
        </mxCell>
        <mxCell id="QWkCyrtVMpErKf0Jch0C-24" value="PORTC = 0XF9" style="rounded=1;whiteSpace=wrap;html=1;absoluteArcSize=1;arcSize=14;strokeWidth=2;fillColor=#a0522d;fontColor=#ffffff;strokeColor=#6D1F00;" vertex="1" parent="1">
          <mxGeometry x="450" y="350" width="100" height="50" as="geometry" />
        </mxCell>
        <mxCell id="QWkCyrtVMpErKf0Jch0C-25" value="PORTC = 0XF6" style="rounded=1;whiteSpace=wrap;html=1;absoluteArcSize=1;arcSize=14;strokeWidth=2;fillColor=#a0522d;fontColor=#ffffff;strokeColor=#6D1F00;" vertex="1" parent="1">
          <mxGeometry x="450" y="550" width="100" height="50" as="geometry" />
        </mxCell>
        <mxCell id="QWkCyrtVMpErKf0Jch0C-41" style="edgeStyle=orthogonalEdgeStyle;rounded=0;orthogonalLoop=1;jettySize=auto;html=1;exitX=0.5;exitY=1;exitDx=0;exitDy=0;exitPerimeter=0;entryX=0.5;entryY=0;entryDx=0;entryDy=0;" edge="1" parent="1" source="QWkCyrtVMpErKf0Jch0C-26" target="QWkCyrtVMpErKf0Jch0C-27">
          <mxGeometry relative="1" as="geometry" />
        </mxCell>
        <mxCell id="QWkCyrtVMpErKf0Jch0C-42" value="SI" style="edgeLabel;html=1;align=center;verticalAlign=middle;resizable=0;points=[];" vertex="1" connectable="0" parent="QWkCyrtVMpErKf0Jch0C-41">
          <mxGeometry x="-0.3333" relative="1" as="geometry">
            <mxPoint as="offset" />
          </mxGeometry>
        </mxCell>
        <mxCell id="QWkCyrtVMpErKf0Jch0C-44" style="edgeStyle=orthogonalEdgeStyle;rounded=0;orthogonalLoop=1;jettySize=auto;html=1;exitX=0;exitY=0.5;exitDx=0;exitDy=0;exitPerimeter=0;" edge="1" parent="1" source="QWkCyrtVMpErKf0Jch0C-26">
          <mxGeometry relative="1" as="geometry">
            <mxPoint x="500" y="830" as="targetPoint" />
            <Array as="points">
              <mxPoint x="410" y="695" />
              <mxPoint x="410" y="830" />
            </Array>
          </mxGeometry>
        </mxCell>
        <mxCell id="QWkCyrtVMpErKf0Jch0C-45" value="NO" style="edgeLabel;html=1;align=center;verticalAlign=middle;resizable=0;points=[];" vertex="1" connectable="0" parent="QWkCyrtVMpErKf0Jch0C-44">
          <mxGeometry x="-0.8566" y="-2" relative="1" as="geometry">
            <mxPoint as="offset" />
          </mxGeometry>
        </mxCell>
        <mxCell id="QWkCyrtVMpErKf0Jch0C-26" value="SE PRESIONO DERECHA?" style="strokeWidth=2;html=1;shape=mxgraph.flowchart.decision;whiteSpace=wrap;fillColor=#e3c800;fontColor=#000000;strokeColor=#B09500;" vertex="1" parent="1">
          <mxGeometry x="450" y="650" width="100" height="90" as="geometry" />
        </mxCell>
        <mxCell id="QWkCyrtVMpErKf0Jch0C-27" value="PORTC = 0XF8" style="rounded=1;whiteSpace=wrap;html=1;absoluteArcSize=1;arcSize=14;strokeWidth=2;fillColor=#a0522d;fontColor=#ffffff;strokeColor=#6D1F00;" vertex="1" parent="1">
          <mxGeometry x="450" y="770" width="100" height="50" as="geometry" />
        </mxCell>
        <mxCell id="QWkCyrtVMpErKf0Jch0C-46" style="edgeStyle=orthogonalEdgeStyle;rounded=0;orthogonalLoop=1;jettySize=auto;html=1;exitX=0.5;exitY=1;exitDx=0;exitDy=0;exitPerimeter=0;entryX=0.5;entryY=0;entryDx=0;entryDy=0;" edge="1" parent="1" source="QWkCyrtVMpErKf0Jch0C-28" target="QWkCyrtVMpErKf0Jch0C-29">
          <mxGeometry relative="1" as="geometry" />
        </mxCell>
        <mxCell id="QWkCyrtVMpErKf0Jch0C-47" value="SI" style="edgeLabel;html=1;align=center;verticalAlign=middle;resizable=0;points=[];" vertex="1" connectable="0" parent="QWkCyrtVMpErKf0Jch0C-46">
          <mxGeometry x="-0.3333" y="-2" relative="1" as="geometry">
            <mxPoint as="offset" />
          </mxGeometry>
        </mxCell>
        <mxCell id="QWkCyrtVMpErKf0Jch0C-50" style="edgeStyle=orthogonalEdgeStyle;rounded=0;orthogonalLoop=1;jettySize=auto;html=1;exitX=0;exitY=0.5;exitDx=0;exitDy=0;exitPerimeter=0;" edge="1" parent="1" source="QWkCyrtVMpErKf0Jch0C-28">
          <mxGeometry relative="1" as="geometry">
            <mxPoint x="500" y="1030" as="targetPoint" />
            <Array as="points">
              <mxPoint x="410" y="895" />
              <mxPoint x="410" y="1030" />
            </Array>
          </mxGeometry>
        </mxCell>
        <mxCell id="QWkCyrtVMpErKf0Jch0C-51" value="NO" style="edgeLabel;html=1;align=center;verticalAlign=middle;resizable=0;points=[];" vertex="1" connectable="0" parent="QWkCyrtVMpErKf0Jch0C-50">
          <mxGeometry x="-0.8415" y="1" relative="1" as="geometry">
            <mxPoint as="offset" />
          </mxGeometry>
        </mxCell>
        <mxCell id="QWkCyrtVMpErKf0Jch0C-28" value="SE PRESIONO IZQUIERDA?" style="strokeWidth=2;html=1;shape=mxgraph.flowchart.decision;whiteSpace=wrap;fillColor=#e3c800;fontColor=#000000;strokeColor=#B09500;" vertex="1" parent="1">
          <mxGeometry x="450" y="850" width="100" height="90" as="geometry" />
        </mxCell>
        <mxCell id="QWkCyrtVMpErKf0Jch0C-29" value="PORTC = 0XF1" style="rounded=1;whiteSpace=wrap;html=1;absoluteArcSize=1;arcSize=14;strokeWidth=2;fillColor=#a0522d;fontColor=#ffffff;strokeColor=#6D1F00;" vertex="1" parent="1">
          <mxGeometry x="450" y="970" width="100" height="50" as="geometry" />
        </mxCell>
        <mxCell id="QWkCyrtVMpErKf0Jch0C-30" style="edgeStyle=orthogonalEdgeStyle;rounded=0;orthogonalLoop=1;jettySize=auto;html=1;exitX=0.5;exitY=1;exitDx=0;exitDy=0;exitPerimeter=0;entryX=0.5;entryY=0;entryDx=0;entryDy=0;entryPerimeter=0;" edge="1" parent="1" source="QWkCyrtVMpErKf0Jch0C-20" target="QWkCyrtVMpErKf0Jch0C-22">
          <mxGeometry relative="1" as="geometry" />
        </mxCell>
        <mxCell id="QWkCyrtVMpErKf0Jch0C-52" value="SI" style="edgeLabel;html=1;align=center;verticalAlign=middle;resizable=0;points=[];" vertex="1" connectable="0" parent="QWkCyrtVMpErKf0Jch0C-30">
          <mxGeometry x="-0.5" y="-1" relative="1" as="geometry">
            <mxPoint as="offset" />
          </mxGeometry>
        </mxCell>
        <mxCell id="QWkCyrtVMpErKf0Jch0C-33" style="edgeStyle=orthogonalEdgeStyle;rounded=0;orthogonalLoop=1;jettySize=auto;html=1;exitX=0.5;exitY=1;exitDx=0;exitDy=0;entryX=0.5;entryY=0;entryDx=0;entryDy=0;entryPerimeter=0;" edge="1" parent="1" source="QWkCyrtVMpErKf0Jch0C-24" target="QWkCyrtVMpErKf0Jch0C-23">
          <mxGeometry relative="1" as="geometry" />
        </mxCell>
        <mxCell id="QWkCyrtVMpErKf0Jch0C-38" style="edgeStyle=orthogonalEdgeStyle;rounded=0;orthogonalLoop=1;jettySize=auto;html=1;exitX=0.5;exitY=1;exitDx=0;exitDy=0;entryX=0.5;entryY=0;entryDx=0;entryDy=0;entryPerimeter=0;" edge="1" parent="1" source="QWkCyrtVMpErKf0Jch0C-25" target="QWkCyrtVMpErKf0Jch0C-26">
          <mxGeometry relative="1" as="geometry" />
        </mxCell>
        <mxCell id="QWkCyrtVMpErKf0Jch0C-43" style="edgeStyle=orthogonalEdgeStyle;rounded=0;orthogonalLoop=1;jettySize=auto;html=1;exitX=0.5;exitY=1;exitDx=0;exitDy=0;entryX=0.5;entryY=0;entryDx=0;entryDy=0;entryPerimeter=0;" edge="1" parent="1" source="QWkCyrtVMpErKf0Jch0C-27" target="QWkCyrtVMpErKf0Jch0C-28">
          <mxGeometry relative="1" as="geometry" />
        </mxCell>
        <mxCell id="QWkCyrtVMpErKf0Jch0C-48" value="INT_RBI" style="strokeWidth=2;html=1;shape=mxgraph.flowchart.start_1;whiteSpace=wrap;fillColor=#60a917;fontColor=#ffffff;strokeColor=#2D7600;" vertex="1" parent="1">
          <mxGeometry x="460" y="1050" width="80" height="40" as="geometry" />
        </mxCell>
        <mxCell id="QWkCyrtVMpErKf0Jch0C-49" style="edgeStyle=orthogonalEdgeStyle;rounded=0;orthogonalLoop=1;jettySize=auto;html=1;exitX=0.5;exitY=1;exitDx=0;exitDy=0;entryX=0.5;entryY=0;entryDx=0;entryDy=0;entryPerimeter=0;" edge="1" parent="1" source="QWkCyrtVMpErKf0Jch0C-29" target="QWkCyrtVMpErKf0Jch0C-48">
          <mxGeometry relative="1" as="geometry" />
        </mxCell>
      </root>
    </mxGraphModel>
  </diagram>
</mxfile>
